<svg height="512pt" viewBox="0 0 512 512" width="512pt" xmlns="http://www.w3.org/2000/svg"><path d="m49.703125 405.097656c0 31.539063 25.65625 57.195313 57.195313 57.195313 31.539062 0 57.199218-25.65625 57.199218-57.195313 0-31.539062-25.660156-57.199218-57.199218-57.199218-31.539063 0-57.195313 25.660156-57.195313 57.199218zm99.394531 0c0 23.265625-18.929687 42.195313-42.199218 42.195313-23.265626 0-42.195313-18.929688-42.195313-42.195313 0-23.269531 18.929687-42.199218 42.195313-42.199218 23.269531 0 42.199218 18.929687 42.199218 42.199218zm0 0"/><path d="m99.398438 380.25v1.980469c-9.609376 3.160156-16.566407 12.214843-16.566407 22.867187 0 13.269532 10.796875 24.066406 24.066407 24.066406 13.273437 0 24.066406-10.796874 24.066406-24.066406 0-10.652344-6.957032-19.707031-16.566406-22.867187v-1.980469c0-4.144531-3.359376-7.5-7.5-7.5-4.140626 0-7.5 3.355469-7.5 7.5zm7.5 33.914062c-5 0-9.066407-4.066406-9.066407-9.066406s4.066407-9.066406 9.066407-9.066406 9.066406 4.066406 9.066406 9.066406-4.066406 9.066406-9.066406 9.066406zm0 0"/><path d="m180.667969 305.699219v-265.066407c0-4.144531-3.359375-7.5-7.5-7.5h-132.535157c-4.140624 0-7.5 3.355469-7.5 7.5v265.066407c0 4.140625 3.359376 7.5 7.5 7.5h132.535157c4.140625 0 7.5-3.359375 7.5-7.5zm-132.535157-169.210938h117.535157v73.355469h-117.535157zm117.535157-88.355469v73.355469h-117.535157v-73.355469zm-117.535157 250.066407v-73.355469h117.535157v73.355469zm0 0"/><path d="m471.367188 298.199219-106.386719-.003907 75.226562-75.222656c7.675781-7.675781 11.902344-17.878906 11.902344-28.734375 0-10.851562-4.226563-21.054687-11.902344-28.730469l-93.714843-93.710937c-15.839844-15.84375-41.617188-15.84375-57.460938 0l-75.230469 75.226563v-46.5c0-4.140626-3.359375-7.5-7.5-7.5-4.144531 0-7.5 3.359374-7.5 7.5v64.605468.007813 73.761719.136718 124.867188.042968 41.15625c0 50.570313-41.0625 91.726563-91.59375 91.894532h-.308593c-.019532 0-.039063.003906-.058594.003906-50.648438-.035156-91.839844-41.246094-91.839844-91.898438l.003906-364.46875c0-14.132812 11.5-25.632812 25.632813-25.632812h132.527343c14.136719 0 25.636719 11.5 25.636719 25.632812v29.152344c0 4.140625 3.355469 7.5 7.5 7.5 4.140625 0 7.5-3.359375 7.5-7.5v-29.152344c0-22.40625-18.230469-40.632812-40.636719-40.632812h-132.527343c-22.40625 0-40.63281275 18.226562-40.63281275 40.632812l-.00390625 364.46875c0 58.945313 47.953125 106.898438 106.898438 106.898438.105468 0 .207031-.003906.308593-.003906h364.160157c22.40625 0 40.632812-18.226563 40.632812-40.632813v-132.53125c0-22.402343-18.226562-40.632812-40.632812-40.632812zm-171.730469-215.796875c9.992187-9.996094 26.253906-9.996094 36.25 0l93.710937 93.714844c4.84375 4.839843 7.507813 11.277343 7.507813 18.121093 0 6.847657-2.664063 13.285157-7.507813 18.125l-219.089844 219.09375c2.148438-8.433593 3.292969-17.265625 3.292969-26.355469v-23.070312l4.941407 4.941406c1.464843 1.464844 3.382812 2.195313 5.304687 2.195313 1.917969 0 3.835937-.730469 5.300781-2.195313l62.472656-62.472656c.003907-.003906.003907-.003906.003907-.003906l62.472656-62.472656s.003906-.003907.003906-.003907 0 0 .003907-.003906l62.472656-62.472656c1.40625-1.40625 2.195312-3.3125 2.195312-5.304688 0-1.988281-.789062-3.894531-2.195312-5.300781l-93.71875-93.71875c-2.925782-2.925781-7.675782-2.925781-10.605469 0l-98.65625 98.660156v-25.640625zm164.226562 263.929687v117.535157h-73.351562v-117.535157zm-88.351562 117.535157h-73.355469v-102.84375l14.691406-14.691407h58.664063zm-161.710938 0v-14.488282l73.355469-73.355468v87.84375zm135.199219-217.757813-83.109375-83.105469 51.871094-51.871094 83.105469 83.109376zm-93.71875-72.5 83.109375 83.109375-51.867187 51.871094-72.722657-72.726563v-20.769531zm20.632812 145.585937-51.867187 51.867188-10.246094-10.246094v-103.738281zm221.085938 152.167969c0 14.132813-11.5 25.632813-25.632812 25.632813h-309.914063c7.40625-4.414063 14.238281-9.695313 20.351563-15.707032.234374-.183593.464843-.382812.683593-.601562l16.3125-16.308594v6.984375c0 4.144531 3.359375 7.5 7.5 7.5h265.066407c4.140624 0 7.5-3.355469 7.5-7.5v-132.53125c0-4.140625-3.359376-7.5-7.5-7.5h-139.519532l18.132813-18.136719 121.386719.003907c14.136718 0 25.632812 11.5 25.632812 25.632812zm0 0"/></svg>